<svg width="1440" height="1024" viewBox="0 0 1440 1024" fill="none" xmlns="http://www.w3.org/2000/svg">
<g clip-path="url(#clip0_9_18)">
<line x1="1338.5" y1="398" x2="1338.5" y2="1055" stroke="#EEB485" stroke-opacity="0.75" stroke-width="3"/>
<line x1="1307.5" y1="349.994" x2="1310.5" y2="1102.99" stroke="#EEB485" stroke-opacity="0.75" stroke-width="3"/>
<line x1="1280.5" y1="838" x2="1280.5" y2="1495" stroke="#EEB485" stroke-opacity="0.75" stroke-width="3"/>
<path d="M1038.79 669.079L1627.25 -190.585L1713.53 -217.234L1114.18 656.29L1038.79 669.079Z" fill="#EEB485" fill-opacity="0.75"/>
<path d="M791.265 1164.58L1550.57 60.152L1648.53 16.766L875.451 1139.19L791.265 1164.58Z" fill="#EEB485" fill-opacity="0.75"/>
<path d="M684.79 1459.08L1273.25 599.415L1359.53 572.766L760.18 1446.29L684.79 1459.08Z" fill="#EEB485" fill-opacity="0.75"/>
<path d="M-686 134.5L355.737 125L426.974 180.5L-632.363 189L-686 134.5Z" fill="#EEB485" fill-opacity="0.75"/>
<line x1="173.002" y1="80.4155" x2="0.49645" y2="140.919" stroke="#EEB485" stroke-opacity="0.75" stroke-width="3"/>
<path d="M397 118L0 118" stroke="#EEB485" stroke-opacity="0.75" stroke-width="3"/>
</g>
<defs>
<clipPath id="clip0_9_18">
<rect width="1440" height="1024" fill="white"/>
</clipPath>
</defs>
</svg>
